<svg xmlns="http://www.w3.org/2000/svg" viewBox="0 0 200 200"><g id="Layer_2" data-name="Layer 2"><path d="M140.44,67c-19.68,9.82-35.08,20.6-46.92,29-1.87,1.33-4.12,3-6.94,5.23-6.25,4.89-15.25,12.23-29,23.44C18,156.93,3.2,171.16-30,196.78c-11.63,9-21.15,16-26.72,20C-50.81,210.05-42,200.07-31.18,188c45.06-50.31,57.88-62.71,69.28-72.86,12.26-10.9,20.95-18.62,34.56-27.84,0,0,2.73-1.84,7.57-4.78a327.36,327.36,0,0,1,51.31-25A37.18,37.18,0,0,1,140.44,67Z" style="fill:#2effb9"/><path d="M177.25,22.2c1.27-2.21,6.82-1.83,10.46-.11,1.28.61,4.2,2,5.29,5.19,1.28,3.75-.44,8.64-3.05,9.45C185.06,38.24,175.06,26,177.25,22.2Z" style="fill:#f9a5a5"/><line x1="141.04" y1="-5.19" x2="146.65" y2="14.15" style="fill:none;stroke:#000;stroke-linecap:round;stroke-miterlimit:10;stroke-width:3px"/><line x1="163.14" y1="1.44" x2="159.69" y2="21.28" style="fill:none;stroke:#000;stroke-linecap:round;stroke-miterlimit:10;stroke-width:3px"/><line x1="130.8" y1="5.54" x2="138.84" y2="14.42" style="fill:none;stroke:#000;stroke-linecap:round;stroke-miterlimit:10;stroke-width:3px"/><path d="M184.07,24.53c1.47,3,1.76,5.65.83,7.56a4.86,4.86,0,0,1-1.32,1.64c-2.52,2-7.43,2.17-14.71,2.35-25.76.71-39.94-3.17-42.17-11.53-.93-3.46.39-6.9,2.13-9.66a29.54,29.54,0,0,1,4.65-5.46c5.77-5.19,13.94-6.66,24.25-4.38C170,7.72,180.47,17.08,184.07,24.53Z" style="fill:#fff"/><path d="M145,4.3c-8.78,6.11-15.11,15.24-12.39,27-3.22-1.77-5.23-4-6-6.72-.93-3.46.39-6.9,2.13-9.66a29.54,29.54,0,0,1,4.65-5.46A21,21,0,0,1,145,4.3Z" style="fill:#f4f4f4"/><path d="M154.21,29.81c6.34,7.51,19,8.92,22,4s-3.29-17.33-12-20.8c-4-1.61-10.85-2.19-13.46,2.23S151.27,26.33,154.21,29.81Z" style="fill:#020202"/><path d="M223.36,40.61l0,0a6.66,6.66,0,0,1,.44.63.71.71,0,0,0,.15.21c.06.08.1.16.14.22h0a12.49,12.49,0,0,0-1.77,1.16c-5.52,4.42-11.14,8.71-16.89,12.8-2.23,1.61-4.49,3.16-6.77,4.7-8.17,5.5-17,8.8-25.41,13.62-5.37,3-9,9.18-6.08,15.39,6.5,13.74,21.47,12.17,33.82,8.28A104.14,104.14,0,0,0,220.75,89a77.49,77.49,0,0,0,7.94-5.41c2.06-1.51,4.13-3.08,6.25-4.52-.43,1.22-.9,2.44-1.36,3.65-4.37,11.7-9.23,23.25-12.33,35.4-4.31,16.85-9.39,32.16-18.68,47-9.86,15.82-19.37,33-32.86,46.11-14,13.6-32.19,22.29-50.29,29-32.87,12.23-66.4,18.45-97.26-2.39C-2,221.61-24.19,206-54,214.77h0c-.74.2-1.48.44-2.22.68-.24.07-.43.17-.64.24.35-2.36,4.57-5.36,9.94-12.84,4.09-5.71,6.33-10.28,13.06-28.57,6.26-17,9.41-25.56,12-33.67C-14.5,116.94,27.76,46.18,102,25.75,157.7,10.42,213.48,28.34,223.36,40.61Z" style="fill:#1c658e"/><path d="M223.82,41.26a.71.71,0,0,0,.15.21.73.73,0,0,1,.12.23A4.82,4.82,0,0,1,224.9,44c.23,4.17-6.52,14.93-16.13,22.11-.29.2-.67.51-1.34,1-.27.19-.54.38-.81.6a140.24,140.24,0,0,1-25.17,14c5.92,2.12,14.68,4.19,24.21,1.87,16.31-4,22.49-17.76,29.28-19.74a5.6,5.6,0,0,1,2.82-.11,7.71,7.71,0,0,1,4.29,3c5.64,7.11,8.32,25.07,7.57,41.55-1,22-8.26,43.45-19.63,63-1.22,2.1-2.5,4.18-3.82,6.23-26,40.57-63.84,61.28-63.84,61.28-10.2,5.59-44.26,23.73-88.77,20.41-11.29-.84-27.7-2.06-46.49-10.7C3,237.33-6.69,222.49-31.88,217.79a80.4,80.4,0,0,0-24.63-.68c.79-.73,1.62-1.49,2.51-2.33h0c7.08-6.58,17.21-16.1,29.12-27.71C46.05,118,49.4,102.37,85,80.66c35.91-21.89,71.64-29.82,86.19-32.95a301,301,0,0,1,42.69-5.93C217.37,41.53,220.73,41.38,223.82,41.26Z" style="fill:#e8fafc"/><path d="M210,87.58c8-1.81,13.07-6.11,16.34-8.93A45.48,45.48,0,0,0,236,67.1c.18-.35,1.38-2.82.59-3.51-.24-.21-.72-.27-2.17.32-5.39,2.21-9.29,7.48-9.3,7.48A34.15,34.15,0,0,1,214.61,80c-7.62,4-14.78,4-19.46,3.89a49.5,49.5,0,0,1-13.7-2.18,38.15,38.15,0,0,0,9.48,4.72A35.26,35.26,0,0,0,210,87.58Z" style="fill:#c7e5e5"/><path d="M222,41.11a59.91,59.91,0,0,1-8,13.56c-2.2,2.8-5,5.91-13,12.39-4.8,3.91-11.47,9.06-19.89,14.72l.32-.12a137.78,137.78,0,0,0,26-14.6c.66-.47,1.06-.78,1.34-1C218.38,58.9,225.13,48.14,224.9,44a5.58,5.58,0,0,0-1.08-2.7Z" style="fill:#d9f3f4"/><path d="M189.48,77.89a130.17,130.17,0,0,0,18-10.83c.66-.47,1.06-.78,1.34-1a53.78,53.78,0,0,0,13.17-14.36,92.35,92.35,0,0,1-10.7,11.49A92.75,92.75,0,0,1,189.48,77.89Z" style="fill:#c7e0e0"/><path d="M237.76,63.67a76.22,76.22,0,0,1,1.16,19.54c-.61,8.67-2.69,16.62-7.67,28.55-4.23,10.13-9.67,23.75-21.61,40s-29.43,40.19-62.15,58.52c-29.16,16.34-70.44,25.58-97.67,21.5-11.75-1.76-22.61-6-33.6-9.95-17.64-6.29-17.18-5.35-19.88-6-27.51-6.52-53.16-.26-53.08,1,0,.78,10.27-1.6,24.86,1,25.81,4.62,34.34,19.13,59,30.61,18.47,8.62,34.63,9.82,46.49,10.7,44.51,3.32,78.57-14.82,88.77-20.41,35.91-19.72,54.49-47.11,63.84-61.28A170,170,0,0,0,242.24,147c6.9-17.08,19.91-49.31,5.47-72.43A42.37,42.37,0,0,0,237.76,63.67Z" style="fill:#d9f3f4"/><path d="M134.22,72.64c-12.91,11.77-23.82,21.45-31.87,28.52,0,0-6.58,5.77-17.27,14.8C62.35,135.15,21,169.06-15,193.37a287.66,287.66,0,0,1-32.2,18.88c-4,2-7.34,3.53-9.56,4.54,11.22-10.36,19.87-19.38,25.7-25.71,22.78-24.73,40.16-49.22,63.7-71,2.13-2,4.76-4.33,5.45-5,11.84-10.54,20.36-18.11,33.23-26.92l1.33-.92s2.73-1.85,7.57-4.79A328,328,0,0,1,123,61c.51.33,1,.69,1.48,1A39.69,39.69,0,0,1,133,70.84C133.33,71.26,133.75,71.88,134.22,72.64Z" style="fill:#f1f9bb"/><path d="M133,70.84A363.7,363.7,0,0,0,93.53,96c-1.9,1.32-4.14,3-6.94,5.23-2.36,1.81-5.11,4-8.37,6.65-5.34,4.3-12.06,9.79-20.61,16.78C18,156.93,3.21,171.15-30,196.77c-11.65,9-21.14,16-26.73,20,11.22-10.36,19.87-19.38,25.7-25.71,22.78-24.73,40.16-49.22,63.7-71,2.13-2,4.76-4.33,5.45-5,11.84-10.54,20.36-18.11,33.23-26.92l1.33-.92s2.73-1.85,7.57-4.79A328,328,0,0,1,123,61c.51.33,1,.69,1.48,1A37.84,37.84,0,0,1,133,70.84Z" style="fill:#f2e991"/><path d="M-21.91,140.62A10.38,10.38,0,0,1-26.69,135c-2.4-8.3,10.4-17.79,19.54-26.74C10.16,91.28,19.78,71,23.5,58.93c9.51-30.64-7.06-46.5,5.36-59,10.4-10.47,31.13-8.6,43.06-4A56.3,56.3,0,0,1,92.07,9.7a62.26,62.26,0,0,1,12.86,19.7A278.4,278.4,0,0,0,53.48,58.83,283.34,283.34,0,0,0-21.91,140.62Z" style="fill:#1a6ca3"/><path d="M92.07,9.7A56.3,56.3,0,0,0,71.92-4.1C60-8.68,39.26-10.55,28.86-.08a17.13,17.13,0,0,0-2.34,2.94C54.38-8,84.42,6.75,98.8,32.18c2.08-1,4.13-1.9,6.13-2.78A62.26,62.26,0,0,0,92.07,9.7Z" style="fill:#1c658e"/><path d="M26.41,43.7A67.56,67.56,0,0,1,23.5,58.93a101.07,101.07,0,0,1-4.57,11.8c5.95-2.88,12-1.41,17.39,1.62,5.37-4.58,11.06-9.11,17.16-13.52,6.56-4.75,13-9,19.36-12.79C58,38.25,40.85,35.37,26.41,43.7Z" style="fill:#207db0"/><path d="M18.93,70.73A128.62,128.62,0,0,1,8.15,89.83a32.6,32.6,0,0,1,9.46,0C23.32,84,29.53,78.13,36.32,72.35,30.88,69.32,24.88,67.85,18.93,70.73Z" style="fill:#2283b4"/><path d="M-6.15,107.19c-.34.34-.65.7-1,1-3.45,3.38-7.43,6.84-10.91,10.29a88,88,0,0,1,9.64,2q4.33-5.91,9.41-12.14A32.3,32.3,0,0,0-6.15,107.19Z" style="fill:#2489b9"/><path d="M8.15,89.83a120.71,120.71,0,0,1-14.3,17.36A32.3,32.3,0,0,1,1,108.43c5-6.08,10.48-12.32,16.62-18.6A32.6,32.6,0,0,0,8.15,89.83Z" style="fill:#2489b9"/><path d="M24.2,15.73c.66,7.44,3.06,16.43,2.21,28C40.85,35.37,58,38.25,72.84,46c6.75-4.08,13.34-7.66,19.65-10.8C75,17.52,47.47,3.66,24.2,15.73Z" style="fill:#1e77ac"/><path d="M26.52,2.86c-2.44,3.83-2.75,8-2.32,12.87C47.47,3.66,75,17.52,92.49,35.24c2.13-1.06,4.24-2.09,6.31-3.06C84.42,6.75,54.38-8,26.52,2.86Z" style="fill:#1c72a7"/><path d="M85.19,189.62c-6.56-3.87-3.7-14.44-7.39-15.84-5.42-2.06-20.69,14.16-26.25,35-3.66,13.71-3.31,30.18.91,31.34,2.23.61,3.84-3.53,9.71-9.86,14.83-16,28-14.83,33.41-28.24.59-1.45,2.91-7.18.46-10S89.3,192,85.19,189.62Z" style="fill:#d9f3f4"/><path d="M84.73,186.39c-7.29-6.4-4.55-15.16-8.25-15.92-5.66-1.17-18.36,17.93-26,37.71-6.41,16.64-12,39.6-7.21,41.12,5,1.61,11.68-17.88,39-39.64,6.6-5.26,15.79-11.75,14.66-16.29C96,190,90.23,191.21,84.73,186.39Z" style="fill:#1a6ca3"/><path d="M84.48,188.58a15.15,15.15,0,0,1-4.6-4.11A15.33,15.33,0,0,1,77.29,179a132.86,132.86,0,0,0-30.37,55.56,101.11,101.11,0,0,1,21.47-32.73A99.89,99.89,0,0,1,84.48,188.58Z" style="fill:#2283b4"/><path d="M53.37,210.05A83.63,83.63,0,0,1,80.15,179.5c-1.58-4.51-1.22-8.53-3.67-9-5.66-1.17-18.36,17.93-26,37.71-6.05,15.7-11.34,37-7.92,40.64C44.68,235.45,46.86,222.35,53.37,210.05Z" style="fill:#1c658e"/><path d="M134,75.35c6.37,9.62,8.38,21.75,4,31.45-5.11,11.25-17.27,15.63-20.92,17-3.13,1.15-14.22,5.14-24.37,1-5.95-2.39-11.16-7.37-15-13.6a45.78,45.78,0,0,1-6.52-19.36c-.85-8.71,1.08-17.43,6.94-23.86C88.53,56.56,108.23,55.49,122,63.67c1,.58,1.92,1.22,2.85,1.9A38.3,38.3,0,0,1,134,75.35Z" style="fill:#d9f3f4"/><path d="M83.51,168.69c4.9,5.78,21.18,23.45,48.83,28.9a85.74,85.74,0,0,0,45.24-3.46" style="fill:none;stroke:#c7e5e5;stroke-linecap:round;stroke-linejoin:round"/><path d="M125,118.16c1.51,2,5.25,7,5.16,13.88-.15,12.92-13.65,20.51-15.64,21.62-2.82,1.59-16.65,9.41-28.51,1.93s-10.78-23.43-10.69-24.46c.88-10.21,7.64-21.16,19.29-24.56C107.89,102.68,119.58,111,125,118.16Z" style="fill:#f9a5a5"/><line x1="63.44" y1="90.74" x2="82.69" y2="92.14" style="fill:none;stroke:#000;stroke-linecap:round;stroke-miterlimit:10;stroke-width:3px"/><line x1="62.2" y1="67.31" x2="80.39" y2="75.95" style="fill:none;stroke:#000;stroke-linecap:round;stroke-miterlimit:10;stroke-width:3px"/><line x1="78.66" y1="55.92" x2="88.73" y2="73.36" style="fill:none;stroke:#000;stroke-linecap:round;stroke-miterlimit:10;stroke-width:3px"/><path d="M137.73,103.16a26.84,26.84,0,0,1-7.84,9.91,43.94,43.94,0,0,1-12.8,6.91c-11.57,4.19-19.59,2.79-24.28.89A27.12,27.12,0,0,1,85.08,116a36.94,36.94,0,0,1-6.86-8.09c-.14-.2-.28-.41-.41-.64a45.35,45.35,0,0,1-6.48-19,.51.51,0,0,1,0-.17c-1-9.46,1.45-17.88,6.83-23.82,9.78-10.81,29.28-12.69,43.48-4.17.46.28.9.57,1.34.86s1,.69,1.48,1A37.84,37.84,0,0,1,133,70.84c.21.29.43.6.62.9s.37.6.56.9C140.41,82.54,141.74,94.14,137.73,103.16Z" style="fill:#fff"/><path d="M90.67,56.5C90,57.15,73,73.15,77.87,94.13,79,98.78,83.14,112.29,97,118.05c15.36,6.4,29.22-2.35,30.41-3.13-1.14.84-18.19,13-34.57,5.94-8.46-3.65-13.3-10.85-15-13.62a46,46,0,0,1-6.51-19.16c-1-9.44,1.46-17.89,6.84-23.82A28.55,28.55,0,0,1,90.67,56.5Z" style="fill:#f4f4f4"/><path d="M86.33,103.85a15.63,15.63,0,0,0,18.2,5c5.94-2.47,10.28-8.6,10.49-14.54.42-11.9-15.75-22.24-24.66-17.16C83.3,81.14,79.79,95.4,86.33,103.85Z"/></g></svg>