<?xml version="1.0" encoding="UTF-8"?>
<svg id="Layer_1" data-name="Layer 1" xmlns="http://www.w3.org/2000/svg" viewBox="0 0 1033.51 1035.13">
  <defs>
    <style>
      .cls-1 {
        fill: #dfedf6;
        stroke-width: 0px;
      }
    </style>
  </defs>
  <path class="cls-1" d="M993.6,372.51c-.67-.99.15-3.16,1.21-5.95,1.47-3.9,2.1-3.63,2.08-4.8-.05-3.77-6.52-5.88-13.87-14.9-2.5-3.07-4.13-5.07-5.18-8.19-2.57-7.68.75-15.1,2.02-17.62,1.59,2.45,3.17,4.9,4.76,7.35l-.28-11.82c2.02.32,8.25,1.65,12.79,8.12,5.9,8.4,4.83,19.62,4.71,20.77-.79,7.34-4.22,11.52-2.35,14.57.61,1,1.12.79,4.23,2.72,1.58.98,6.35,3.95,6.22,5.27-.09.95-2.64-.21-6.22,1.16-2.18.83-2.31,1.67-5.06,2.76-1.87.74-4.3,1.7-5.08.55Z"/>
  <path class="cls-1" d="M942.35,259.55c-.89-.8-.63-3.1-.29-6.07.47-4.14,1.15-4.03.84-5.16-.97-3.64-7.77-4.1-17.1-11.04-3.18-2.36-5.25-3.9-7.03-6.67-4.38-6.82-2.98-14.82-2.36-17.58,2.14,1.99,4.28,3.97,6.42,5.96l-3.17-11.39c2.03-.18,8.4-.42,14.4,4.73,7.78,6.7,9.5,17.83,9.66,18.98,1.04,7.31-1.26,12.2,1.3,14.7.84.82,1.28.49,4.76,1.6,1.77.57,7.13,2.27,7.33,3.58.14.95-2.61.45-5.74,2.65-1.91,1.34-1.83,2.19-4.23,3.92-1.63,1.17-3.75,2.71-4.79,1.78Z"/>
  <path class="cls-1" d="M866.02,162.69c-1.06-.56-1.36-2.85-1.76-5.81-.55-4.13.13-4.19-.44-5.21-1.83-3.3-8.53-2.08-19.27-6.54-3.66-1.52-6.04-2.5-8.44-4.76-5.91-5.55-6.5-13.65-6.57-16.47,2.56,1.4,5.12,2.81,7.68,4.21l-5.85-10.27c1.93-.67,8.05-2.46,15.12,1.09,9.18,4.6,13.56,14.98,14,16.06,2.79,6.84,1.74,12.14,4.84,13.94,1.01.59,1.36.16,5.01.39,1.86.12,7.47.47,7.98,1.69.37.89-2.42,1.07-4.92,3.97-1.52,1.77-1.24,2.57-3.15,4.83-1.29,1.54-2.98,3.54-4.21,2.89Z"/>
  <path class="cls-1" d="M768.94,87.91c-1.16-.28-2.02-2.43-3.12-5.21-1.54-3.87-.9-4.1-1.7-4.95-2.58-2.75-8.78.06-20.29-1.63-3.92-.58-6.47-.95-9.35-2.55-7.09-3.93-9.63-11.65-10.4-14.37,2.82.74,5.65,1.47,8.47,2.21l-8.18-8.53c1.7-1.12,7.2-4.35,14.92-2.64,10.02,2.22,16.81,11.22,17.49,12.15,4.37,5.95,4.66,11.35,8.09,12.34,1.13.32,1.36-.18,4.95-.85,1.83-.34,7.36-1.37,8.15-.31.58.77-2.09,1.63-3.8,5.05-1.05,2.08-.58,2.79-1.87,5.46-.88,1.81-2.02,4.16-3.37,3.83Z"/>
  <path class="cls-1" d="M657.21,39.92c-1.19.01-2.56-1.86-4.31-4.28-2.45-3.37-1.88-3.75-2.87-4.38-3.18-2.03-8.49,2.22-20.07,3.41-3.94.41-6.5.67-9.69-.17-7.84-2.07-12.21-8.92-13.62-11.36,2.92.02,5.84.04,8.76.06l-10.03-6.26c1.38-1.51,5.91-5.99,13.81-6.23,10.26-.31,19.05,6.73,19.95,7.47,5.7,4.69,7.31,9.85,10.88,9.96,1.17.04,1.28-.51,4.59-2.04,1.69-.78,6.79-3.14,7.82-2.31.75.6-1.62,2.09-2.44,5.83-.5,2.28.13,2.85-.47,5.75-.41,1.97-.94,4.53-2.33,4.54Z"/>
  <path class="cls-1" d="M536.85,19.95c-1.16.3-2.93-1.18-5.22-3.1-3.19-2.67-2.74-3.18-3.85-3.55-3.57-1.19-7.7,4.23-18.63,8.2-3.72,1.35-6.15,2.23-9.44,2.2-8.1-.09-14.01-5.67-15.98-7.7,2.84-.69,5.67-1.39,8.51-2.08l-11.26-3.62c.97-1.8,4.27-7.25,11.88-9.41,9.87-2.81,20.12,1.88,21.17,2.38,6.67,3.16,9.49,7.77,12.98,7.01,1.14-.25,1.11-.8,3.96-3.1,1.45-1.17,5.82-4.7,7.03-4.14.87.4-1.06,2.42-.95,6.25.07,2.33.82,2.73.94,5.69.08,2.01.19,4.62-1.15,4.97Z"/>
  <path class="cls-1" d="M413.76,30.76c-1.05.58-3.13-.43-5.82-1.73-3.75-1.81-3.43-2.41-4.6-2.5-3.76-.28-6.43,5.98-16.06,12.51-3.28,2.22-5.41,3.67-8.61,4.44-7.88,1.89-14.97-2.07-17.37-3.56,2.58-1.37,5.16-2.73,7.74-4.1l-11.8-.76c.5-1.98,2.37-8.07,9.22-12.03,8.89-5.14,19.97-3.09,21.11-2.87,7.24,1.43,11.1,5.22,14.3,3.62,1.05-.52.88-1.05,3.08-3.97,1.12-1.49,4.5-5.98,5.8-5.74.94.18-.44,2.61.61,6.29.64,2.24,1.46,2.45,2.31,5.29.57,1.92,1.32,4.43.1,5.1Z"/>
  <path class="cls-1" d="M296.8,72.21c-.87.82-3.14.35-6.07-.24-4.08-.83-3.92-1.49-5.07-1.29-3.71.65-4.76,7.38-12.49,16.07-2.63,2.96-4.34,4.89-7.26,6.42-7.17,3.77-15.02,1.67-17.72.82,2.16-1.96,4.33-3.92,6.49-5.88l-11.62,2.17c0-2.04.31-8.41,5.97-13.93,7.35-7.17,18.59-7.91,19.75-7.97,7.37-.4,12.04,2.32,14.76,0,.89-.76.6-1.24,2.01-4.61.72-1.72,2.89-6.9,4.21-6.99.96-.06.22,2.64,2.14,5.95,1.17,2.02,2.02,2.01,3.54,4.56,1.03,1.73,2.37,3.97,1.36,4.92Z"/>
  <path class="cls-1" d="M193.48,140.18c-.65,1.01-2.96,1.11-5.94,1.24-4.16.19-4.16-.49-5.23-.01-3.44,1.54-2.82,8.32-8.19,18.63-1.83,3.51-3.02,5.8-5.47,8-6.04,5.41-14.16,5.29-16.98,5.12,1.62-2.43,3.24-4.85,4.86-7.28l-10.74,4.94c-.5-1.98-1.75-8.23,2.39-14.96,5.38-8.74,16.1-12.21,17.21-12.55,7.05-2.18,12.24-.68,14.31-3.61.68-.96.28-1.34.82-4.96.28-1.84,1.12-7.4,2.38-7.8.91-.29.85,2.5,3.53,5.25,1.63,1.67,2.45,1.46,4.54,3.56,1.42,1.42,3.27,3.27,2.52,4.44Z"/>
  <path class="cls-1" d="M110.3,230.43c-.38,1.13-2.6,1.8-5.46,2.65-3.99,1.2-4.16.54-5.08,1.26-2.96,2.33-.71,8.75-3.4,20.07-.92,3.85-1.52,6.36-3.36,9.09-4.54,6.71-12.44,8.58-15.22,9.1.98-2.75,1.96-5.5,2.94-8.25l-9.22,7.41c-.97-1.8-3.7-7.56-1.32-15.1,3.09-9.79,12.64-15.76,13.63-16.36,6.31-3.84,11.71-3.65,13-6.99.42-1.09-.06-1.37-.41-5.01-.18-1.85-.72-7.45.4-8.15.82-.51,1.44,2.22,4.7,4.23,1.98,1.22,2.73.82,5.27,2.34,1.72,1.03,3.97,2.38,3.52,3.7Z"/>
  <path class="cls-1" d="M52.38,337.77c-.09,1.19-2.08,2.38-4.64,3.92-3.57,2.14-3.9,1.54-4.61,2.47-2.3,2.98,1.47,8.66,1.63,20.29.06,3.96.09,6.54-1.02,9.64-2.75,7.62-9.95,11.37-12.52,12.56.28-2.91.55-5.81.83-8.72l-7.11,9.44c-1.38-1.5-5.45-6.42-4.99-14.31.59-10.25,8.38-18.38,9.2-19.21,5.17-5.27,10.45-6.41,10.88-9.97.14-1.16-.39-1.32-1.63-4.75-.63-1.75-2.53-7.04-1.61-8,.67-.69,1.94,1.8,5.59,2.95,2.22.7,2.85.12,5.69.98,1.92.58,4.43,1.33,4.32,2.72Z"/>
  <path class="cls-1" d="M23.2,455.7c.2,1.18-1.43,2.82-3.54,4.93-2.94,2.95-3.4,2.45-3.87,3.53-1.5,3.46,3.55,8.03,6.56,19.27,1.03,3.83,1.7,6.32,1.37,9.59-.79,8.06-6.86,13.47-9.05,15.25-.45-2.88-.89-5.77-1.34-8.65l-4.58,10.9c-1.71-1.12-6.85-4.88-8.35-12.65-1.94-10.08,3.61-19.88,4.2-20.88,3.72-6.38,8.56-8.78,8.1-12.33-.15-1.16-.7-1.18-2.74-4.21-1.04-1.54-4.18-6.21-3.52-7.36.48-.83,2.32,1.27,6.15,1.48,2.33.13,2.79-.58,5.75-.45,2.01.09,4.62.21,4.86,1.57Z"/>
  <path class="cls-1" d="M21.81,578.78c.48,1.09-.7,3.08-2.23,5.65-2.13,3.58-2.7,3.21-2.89,4.36-.61,3.72,5.39,6.93,11.05,17.09,1.93,3.46,3.18,5.71,3.66,8.97,1.19,8.02-3.38,14.73-5.07,16.99-1.13-2.69-2.27-5.38-3.4-8.07l-1.79,11.69c-1.93-.67-7.83-3.07-11.17-10.24-4.34-9.31-1.32-20.16-1-21.28,2.06-7.09,6.17-10.6,4.86-13.93-.43-1.09-.97-.97-3.69-3.42-1.38-1.25-5.56-5.01-5.2-6.28.26-.92,2.56.67,6.32-.05,2.29-.44,2.57-1.24,5.47-1.83,1.97-.4,4.53-.92,5.09.35Z"/>
  <path class="cls-1" d="M53.14,698.79c.74.94.08,3.16-.77,6.02-1.19,3.99-1.83,3.77-1.73,4.94.32,3.75,6.93,5.39,14.92,13.85,2.72,2.88,4.49,4.75,5.76,7.79,3.13,7.48.35,15.11-.73,17.72-1.76-2.33-3.52-4.66-5.28-6.98l1.14,11.77c-2.03-.17-8.35-1.05-13.35-7.17-6.49-7.95-6.25-19.21-6.21-20.37.25-7.38,3.37-11.79,1.28-14.7-.68-.95-1.18-.7-4.41-2.4-1.65-.87-6.62-3.48-6.59-4.81.02-.96,2.64.01,6.11-1.61,2.11-.99,2.18-1.84,4.85-3.12,1.81-.87,4.16-2.01,5.02-.92Z"/>
  <path class="cls-1" d="M112.18,807.77c.95.73.85,3.05.72,6.03-.17,4.16-.85,4.11-.47,5.21,1.23,3.56,8.04,3.53,17.85,9.77,3.34,2.13,5.52,3.51,7.49,6.15,4.86,6.48,4.04,14.56,3.63,17.36-2.28-1.83-4.56-3.65-6.83-5.48l3.99,11.13c-2.02.33-8.35,1.03-14.7-3.68-8.24-6.12-10.76-17.1-11.01-18.23-1.56-7.22.38-12.26-2.35-14.57-.9-.76-1.32-.39-4.87-1.25-1.81-.44-7.27-1.75-7.57-3.05-.21-.94,2.57-.63,5.53-3.06,1.81-1.48,1.67-2.31,3.94-4.22,1.54-1.29,3.55-2.97,4.64-2.12Z"/>
  <path class="cls-1" d="M195.03,898.7c1.09.48,1.56,2.75,2.17,5.67.84,4.08.17,4.19.81,5.17,2.06,3.16,8.66,1.47,19.69,5.14,3.76,1.25,6.2,2.06,8.76,4.14,6.29,5.11,7.46,13.14,7.74,15.96-2.65-1.22-5.31-2.43-7.96-3.65l6.58,9.83c-1.87.81-7.85,3.03-15.15,0-9.48-3.93-14.6-13.97-15.11-15.01-3.27-6.62-2.61-11.98-5.83-13.56-1.05-.52-1.37-.06-5.03-.03-1.86.02-7.48.07-8.08-1.11-.43-.86,2.34-1.24,4.62-4.31,1.39-1.87,1.05-2.65,2.79-5.05,1.18-1.63,2.72-3.74,3.99-3.19Z"/>
  <path class="cls-1" d="M297.17,966.08c1.18.2,2.19,2.28,3.49,4.97,1.82,3.75,1.19,4.02,2.06,4.81,2.77,2.55,8.75-.7,20.35.15,3.95.29,6.52.48,9.51,1.87,7.35,3.41,10.46,10.92,11.42,13.57-2.87-.53-5.74-1.06-8.61-1.59l8.78,7.92c-1.62,1.24-6.87,4.86-14.69,3.72-10.16-1.49-17.58-9.97-18.33-10.85-4.79-5.62-5.47-10.98-8.97-11.72-1.15-.24-1.35.28-4.88,1.2-1.8.47-7.24,1.9-8.11.9-.63-.72,1.96-1.77,3.43-5.31.89-2.15.37-2.83,1.47-5.58.75-1.86,1.72-4.29,3.09-4.07Z"/>
  <path class="cls-1" d="M411.96,1005.53c1.19-.1,2.68,1.67,4.61,3.95,2.68,3.18,2.15,3.6,3.18,4.16,3.31,1.79,8.31-2.83,19.76-4.86,3.9-.69,6.44-1.14,9.67-.53,7.97,1.49,12.82,8.01,14.41,10.35-2.91.19-5.83.39-8.74.58l10.46,5.51c-1.26,1.6-5.46,6.4-13.33,7.22-10.21,1.06-19.49-5.33-20.44-6-6.03-4.26-8-9.29-11.58-9.15-1.17.05-1.24.6-4.43,2.37-1.63.9-6.55,3.62-7.64,2.87-.79-.55,1.46-2.2,2.01-5.99.33-2.31-.34-2.83.05-5.77.26-1.99.61-4.58,1.99-4.7Z"/>
  <path class="cls-1" d="M533.88,1017.83c1.13-.39,3.01.97,5.43,2.72,3.38,2.44,2.96,2.97,4.09,3.26,3.65.94,7.37-4.77,17.99-9.51,3.62-1.62,5.97-2.67,9.26-2.87,8.09-.49,14.38,4.65,16.49,6.54-2.78.89-5.56,1.79-8.34,2.68l11.49,2.81c-.83,1.86-3.74,7.54-11.17,10.24-9.65,3.51-20.2-.44-21.28-.86-6.88-2.67-10.02-7.07-13.45-6.06-1.12.33-1.05.88-3.73,3.37-1.36,1.27-5.47,5.1-6.71,4.64-.9-.34.89-2.49.5-6.3-.24-2.32-1.01-2.67-1.35-5.61-.23-2-.52-4.59.79-5.04Z"/>
  <path class="cls-1" d="M656.04,997.02c1-.65,3.16.2,5.93,1.3,3.87,1.53,3.6,2.15,4.77,2.16,3.77,0,5.98-6.43,15.1-13.64,3.11-2.46,5.13-4.05,8.27-5.05,7.72-2.46,15.08.98,17.59,2.29-2.47,1.55-4.95,3.1-7.42,4.65l11.82-.1c-.35,2.01-1.78,8.23-8.32,12.67-8.49,5.77-19.69,4.54-20.84,4.4-7.33-.9-11.45-4.39-14.53-2.57-1.01.6-.81,1.11-2.78,4.19-1.01,1.57-4.05,6.29-5.37,6.14-.95-.11.25-2.63-1.07-6.23-.8-2.19-1.64-2.34-2.69-5.1-.71-1.88-1.64-4.32-.47-5.08Z"/>
  <path class="cls-1" d="M769.77,947.42c.81-.88,3.11-.58,6.07-.2,4.13.54,4.02,1.21,5.15.92,3.66-.92,4.21-7.7,11.29-16.93,2.41-3.14,3.98-5.19,6.77-6.93,6.88-4.28,14.86-2.76,17.61-2.1-2.02,2.11-4.03,4.22-6.05,6.33l11.44-3c.15,2.04.3,8.41-4.95,14.32-6.81,7.68-17.97,9.23-19.12,9.38-7.32.93-12.18-1.45-14.72,1.08-.83.83-.51,1.28-1.67,4.74-.59,1.77-2.38,7.09-3.69,7.27-.95.13-.41-2.61-2.56-5.78-1.31-1.93-2.16-1.86-3.86-4.29-1.15-1.65-2.65-3.79-1.71-4.81Z"/>
  <path class="cls-1" d="M867.78,872.49c.57-1.05,2.87-1.32,5.84-1.67,4.14-.49,4.19.19,5.22-.36,3.32-1.78,2.21-8.5,6.83-19.17,1.57-3.64,2.59-6,4.88-8.37,5.63-5.83,13.74-6.29,16.57-6.33-1.44,2.54-2.88,5.08-4.33,7.61l10.36-5.7c.64,1.94,2.34,8.08-1.31,15.1-4.74,9.11-15.18,13.33-16.26,13.75-6.88,2.69-12.16,1.56-14.01,4.63-.6,1-.18,1.36-.46,5-.14,1.86-.58,7.46-1.81,7.95-.89.36-1.03-2.44-3.89-4.98-1.74-1.55-2.55-1.28-4.79-3.22-1.52-1.32-3.49-3.03-2.83-4.25Z"/>
  <path class="cls-1" d="M944.05,776.52c.3-1.16,2.46-1.98,5.25-3.04,3.89-1.48,4.11-.84,4.97-1.63,2.79-2.54.07-8.78,1.94-20.26.64-3.91,1.05-6.45,2.69-9.31,4.04-7.03,11.79-9.46,14.52-10.18-.78,2.81-1.56,5.63-2.34,8.44l8.66-8.05c1.1,1.72,4.24,7.27,2.41,14.96-2.37,9.99-11.47,16.64-12.41,17.31-6.01,4.28-11.41,4.49-12.46,7.91-.34,1.12.16,1.36.77,4.97.31,1.84,1.26,7.38.19,8.15-.78.56-1.59-2.11-4.99-3.88-2.07-1.08-2.79-.62-5.43-1.95-1.79-.91-4.13-2.09-3.78-3.43Z"/>
  <path class="cls-1" d="M993.77,665.51c0-1.19,1.9-2.53,4.34-4.24,3.41-2.39,3.78-1.82,4.42-2.8,2.08-3.14-2.09-8.53-3.11-20.11-.35-3.95-.57-6.51.32-9.68,2.19-7.8,9.1-12.07,11.57-13.44-.06,2.92-.13,5.84-.19,8.76l6.41-9.94c1.49,1.4,5.9,6,6.02,13.91.16,10.26-7.02,18.95-7.77,19.83-4.78,5.63-9.96,7.16-10.13,10.73-.06,1.17.49,1.28,1.97,4.62.76,1.7,3.04,6.84,2.19,7.86-.61.74-2.06-1.65-5.79-2.53-2.27-.54-2.85.09-5.74-.56-1.96-.44-4.51-1.01-4.51-2.4Z"/>
  <path class="cls-1" d="M1013.01,521.57c-.29-1.16,1.23-2.91,3.18-5.18,2.72-3.15,3.22-2.69,3.6-3.79,1.25-3.56-4.11-7.76-7.92-18.75-1.3-3.74-2.14-6.18-2.06-9.47.21-8.1,5.88-13.93,7.94-15.86.65,2.85,1.3,5.69,1.95,8.54l3.79-11.2c1.78.99,7.19,4.38,9.24,12.02,2.66,9.91-2.18,20.09-2.69,21.13-3.26,6.63-7.91,9.37-7.2,12.88.23,1.15.79,1.13,3.04,4,1.15,1.47,4.61,5.89,4.04,7.09-.42.86-2.41-1.1-6.24-1.04-2.33.03-2.74.78-5.7.86-2.01.05-4.62.13-4.96-1.22Z"/>
</svg>