<?xml version="1.0" encoding="UTF-8"?>
<svg id="Layer_2" data-name="Layer 2" xmlns="http://www.w3.org/2000/svg" xmlns:xlink="http://www.w3.org/1999/xlink" viewBox="0 0 163.39 163.39">
  <defs>
    <style>
      .cls-1 {
        stroke: #c7e5e5;
        stroke-linejoin: round;
      }

      .cls-1, .cls-2 {
        stroke-linecap: round;
      }

      .cls-1, .cls-2, .cls-3 {
        fill: none;
      }

      .cls-2 {
        stroke: #000;
        stroke-miterlimit: 10;
        stroke-width: 3px;
      }

      .cls-4 {
        clip-path: url(#clippath);
      }

      .cls-3, .cls-5, .cls-6, .cls-7, .cls-8, .cls-9, .cls-10, .cls-11, .cls-12, .cls-13, .cls-14, .cls-15, .cls-16, .cls-17, .cls-18, .cls-19, .cls-20, .cls-21, .cls-22, .cls-23, .cls-24, .cls-25, .cls-26, .cls-27, .cls-28, .cls-29, .cls-30, .cls-31, .cls-32, .cls-33, .cls-34 {
        stroke-width: 0px;
      }

      .cls-5 {
        opacity: .78;
      }

      .cls-5, .cls-27 {
        fill: #d9f3f4;
      }

      .cls-7 {
        fill: #f2e991;
      }

      .cls-8 {
        fill: #f9f0e8;
      }

      .cls-9 {
        fill: #f9ddca;
      }

      .cls-10 {
        fill: #f9a5a5;
      }

      .cls-11 {
        fill: #540419;
      }

      .cls-12 {
        fill: #268ebd;
      }

      .cls-13 {
        fill: #2a9ac5;
      }

      .cls-14 {
        fill: #2894c1;
      }

      .cls-15 {
        fill: #2effb9;
      }

      .cls-16 {
        fill: #440619;
      }

      .cls-17 {
        fill: #1c72a7;
      }

      .cls-18 {
        fill: #1c658e;
      }

      .cls-19 {
        fill: #1a6ca3;
      }

      .cls-20 {
        fill: #2283b4;
      }

      .cls-21 {
        fill: #1e77ac;
      }

      .cls-22 {
        fill: #207db0;
      }

      .cls-23 {
        fill: #26010c;
      }

      .cls-24 {
        fill: #2489b9;
      }

      .cls-25 {
        fill: #c7e0e0;
      }

      .cls-26 {
        fill: #c7e5e5;
      }

      .cls-28 {
        fill: #f2d0b6;
      }

      .cls-29 {
        fill: #f1f9bb;
      }

      .cls-30 {
        fill: #fff;
      }

      .cls-31 {
        fill: #e87e7c;
      }

      .cls-32 {
        fill: #e8fafc;
      }

      .cls-33 {
        fill: #f4f4f4;
      }

      .cls-34 {
        fill: #020202;
      }
    </style>
    <clipPath id="clippath">
      <circle class="cls-3" cx="81.7" cy="81.7" r="81.7"/>
    </clipPath>
  </defs>
  <g class="cls-4">
    <g>
      <path class="cls-23" d="M155.15,101.16c.27-.77,3.03-.45,4.03-.28,3.55.61,6.72,3.03,6.4,3.92-.15.42-1.06.44-1.84.46-4.5.11-8.96-3.03-8.59-4.1Z"/>
      <path class="cls-8" d="M154.08,104.29c0-.66.64-.9,1.37-2.84.46-1.21.38-1.51.61-1.93,1.25-2.25,10.15-.91,10.53,1.53.24,1.57-3.15,2.87-2.91,5.63.07.83.43,1.1.22,1.44-.95,1.56-9.86-1.35-9.83-3.83Z"/>
      <path class="cls-11" d="M113.19,134.32c-.05-.77-.2-2.75,1.05-4,.87-.87,2.02-.99,2.76-1.11.94-.15,3.07-1.22,7.34-3.35,14.13-7.05,21.9-15.55,21.9-15.55,4.12-4.5,7.04-9.23,9.75-8.47,1.51.42,1.92,2.26,4.34,2.98,2.63.78,4.15-.78,4.93-.21,2.45,1.8-4.41,23.51-22.79,35.36-4.59,2.96-13.18,8.5-20.7,5.33-4.73-2-8.31-7.14-8.58-10.98Z"/>
      <path class="cls-11" d="M164.49,112.02c1.35-3.96,1.59-6.8.76-7.41-.77-.57-2.29.99-4.93.21-2.41-.71-2.83-2.55-4.34-2.98-2.71-.76-5.64,3.96-9.75,8.47,0,0-7.77,8.5-21.9,15.55-4.27,2.13-6.4,3.2-7.34,3.35-.74.12-1.89.24-2.76,1.11-1.24,1.25-1.1,3.23-1.05,4,.12,1.71.9,3.68,2.15,5.52,19.23-4.52,36.99-12.46,49.15-27.83Z"/>
      <path class="cls-16" d="M116.41,144.31c1.27.35,3.11.78,5.36.98,9.67.87,17.27-3.12,20.7-5.33,12.21-7.88,19.34-20.11,22.02-27.95-4.52,6.77-13.97,18.77-30.21,26.5-6.57,3.13-12.75,4.84-17.87,5.8Z"/>
      <path class="cls-23" d="M114.52,128.06c.32-.66,1.2-2.45.48-3.34-.63-.79-2.19-.52-2.94-.37-13.99,2.68-26.41,5.07-26.12,8.66.24,2.88,8.56,5.32,15.37,4.21,7.09-1.16,11.68-6.03,13.21-9.16Z"/>
      <path class="cls-9" d="M90.07,124.7c.35-.42.27-.56.58-.86,1.2-1.17,3.46-.71,8.33-3.61,2.98-1.77,4.43-3.27,7.45-3.58,1.71-.17,2.65-.27,3.54.3,3.21,2.03-.36,8.62,3.54,14.35,1.45,2.14,2.58,2.21,2.64,3.56.1,2.13-5.98,5.51-13.21,7.19-4.82,1.11-9.97,2.31-11.87-.11-1.57-1.99.9-4.13-.59-8.6-1.12-3.35-3.72-5.86-2.93-6.91.44-.58,1.46-.48,2.51-1.74Z"/>
      <path class="cls-28" d="M111.59,125.52c-.34-3.82.54-7.22-1.61-8.58-.9-.56-1.84-.47-3.54-.3-3.03.31-4.47,1.81-7.45,3.58-4.87,2.89-7.13,2.44-8.33,3.61-.31.3-.23.44-.58.86-1.05,1.26-2.07,1.16-2.51,1.74-.69.91,1.18,2.92,2.41,5.63,7.98.37,17.92-.2,21.61-6.55Z"/>
      <path class="cls-6" d="M146.49,168.85c.05-.28.9-5.27-2.23-9.06-8.98-10.86-44.03-3.68-52.84,15.59-1.25,2.74-3.19,6.98-1.33,10.02,6.32,10.35,53.12,1.14,56.4-16.55Z"/>
      <path class="cls-11" d="M89.23,137.49c4.91-1.66,7.56,3.35,13.9,2.79,4.9-.43,8.37-3.64,8.62-3.88,3.16-3.05,2.7-5.73,5.24-7.18,3.09-1.77,7.31.22,10.53,1.78,13.16,6.4,18.18,19.09,19.19,21.85,2.64,7.18,1.62,10.66,1.34,11.53-1.08,3.31-3.43,5.37-7.26,8.17-17.25,12.58-41.65,15.26-41.65,15.26-4.66.51-9.64.72-12.95-2.39-2.43-2.28-2.93-5.41-3.18-7.02-2.54-16.07-7.35-18.08-5.05-26.67.58-2.15,2.21-6.99,6.47-10.98,1.75-1.64,2.93-2.62,4.8-3.26Z"/>
      <path class="cls-16" d="M100.17,187.67c-.67.1-1.03.14-1.03.14-4.66.51-9.64.72-12.94-2.39-1.14-1.06-1.84-2.3-2.3-3.51,0,0-.68-1.62-.89-3.5-.32-2.9-.19-13.19.52-27.16.43-3.6,1.01-5.43,1.74-5.49.23-.02.47.13.72.46,2.81,9.52,3.82,15.24,4.18,18.84.06.61.2,1.52.46,2.85.38,2.06,1.01,5.1,1.9,9.48.27,1.31.59,2.78,1.5,4.46,1.71,3.12,4.37,4.9,6.14,5.83Z"/>
      <path class="cls-16" d="M113.84,128.35c.37-.36,1.28-1.18,1.3-2.35.02-.71-.19-1.25-.14-1.27.07-.02.53.97,2.11,5.04.11.41.23,1.03.18,1.77-.17,2.66-2.34,4.47-3.54,5.43-3.2,2.6-11.1,6.94-21.04,5.04-2.74-.52-4.91-1.38-6.37-2.06.03-.79.04-1.61.02-2.46-.03-1.84-.16-3.55-.35-5.14,2.42,1.36,6.27,3.01,11.13,3.1,0,0,9.21.17,16.68-7.11Z"/>
      <path class="cls-16" d="M163.79,107.17c1.2-.69,1.65-1.92,1.79-2.37-1.88-.17-4.4-.63-7.13-1.84-1.28-.56-2.38-1.19-3.3-1.8-.22.21-.66.7-.78,1.42-.13.8.2,1.43.39,1.78,1.34,2.47,5.1,2.99,5.81,3.09,1.27.17,2.23.29,3.23-.28Z"/>
      <path class="cls-9" d="M173.05,92.88c-.52,1.85-2.62,9.37-8.62,11.89-2.06.87-3.63.76-4.04.72-4.02-.38-6.34-3.99-6.68-4.52-.99-1.6-.22-1.38-1.58-4.55-.95-2.19-2.93-6.03-2.18-7.3h0c.11-.19.88-1.46,1.83-1.42,1.74.08,2.33,4.48,4.1,4.51.6.02,1.06-.48,1.32-.77,3.29-3.65,1.55-15.6,5.24-17.73.62-.36,1.39-.43,2.24-.29.23.03.47.09.71.15,1.1.3,2.27.9,3.39,1.7.28.19.57.41.83.63,1.1.89,2.09,1.96,2.84,3.08,3.17,4.76,1.63,10.22.6,13.91Z"/>
      <path class="cls-28" d="M155.95,103.53c1.1.93,2.59,1.78,4.44,1.96.41.04,1.98.15,4.04-.71,4.61-1.94,6.91-6.81,7.97-9.8-3.33,5.63-10.08,9.47-16.44,8.56Z"/>
      <path class="cls-11" d="M94.2,153.68c.89,4.17-.21,7.78-2.45,12.29-.11.21-.21.42-.33.64-.69,1.36-1.47,2.8-2.34,4.38-2.13,3.86-4.1,6.63-5.89,8.8-4.97,6.01-8.63,7.5-11,15.3-1.13,3.7-1.55,7.44-4.79,9.42-3.81,2.33-8.84.54-9.61.26-1.45-.51-5.36-1.88-6.76-5.34-.51-1.26-.78-2.99,2.66-13.36,1.06-3.17,1.67-4.97,2.33-6.62,2.27-5.61,13.71-30.16,24.46-35.68,1.79-.92,3.56-1.31,5.26-.99,1.02.18,1.94.63,2.79,1.23.23.17.46.34.67.54,2.7,2.32,4.4,6.34,5,9.14Z"/>
      <path class="cls-15" d="M98.95,51.54c-9.01,3.75-16.15,8.05-21.64,11.41-.87.53-1.91,1.21-3.23,2.1-2.91,1.97-7.12,4.95-13.53,9.49-18.49,13.09-25.48,18.93-40.95,29.26-5.42,3.61-9.84,6.42-12.43,8.04,2.83-2.8,7.04-6.95,12.18-11.95,21.46-20.89,27.51-25.99,32.86-30.14,5.76-4.45,9.83-7.61,16.14-11.27,0,0,1.26-.73,3.5-1.89,4.56-2.34,13.16-6.4,23.46-9.51,1.48,1.26,2.71,2.78,3.65,4.45Z"/>
      <path class="cls-19" d="M17.55,99.52c-1.13-4.4-7-5.95-12.84-7.5-6.46-1.71-11.67-1.49-12.42-1.46-35.52,1.59-43.72,1.56-43.72,2.68,0,1.51,14.72,3.02,20.24,3.59,9.41.97,11.46.47,16.75,2.23,7.02,2.33,10.53,3.49,13.69,6.9,2.07,2.24,4.25,5.72,7.9,5.88,1.03.04,1.8-.19,2.3-.34,4.57-1.4,9.3-7.28,8.09-11.99Z"/>
      <path class="cls-19" d="M8.87,110.65c-.8.43-1.24.67-1.7,1.19-2.38,2.67-.58,7.36.25,11.23.68,3.22.28,7.34-.52,15.56-1.35,13.8-5.78,20.06-4.44,20.83,2.01,1.16,12.93-12.47,19.25-28.65,1.75-4.47,5.94-15.51,1.89-19.05-.6-.52-1.56-.8-3.49-1.36-2.26-.66-7-2.04-11.23.25Z"/>
      <path class="cls-18" d="M4.72,92.02c-10.64-2.49-19.54-2.35-21.43-2.31-12.44.27-34.71,1.5-34.71,3.54,0,.39.83.93,4.51,1.57,2.92-.15,7.1-.32,12.13-.36,15.87-.13,23.8-.19,29.37,1.67,10.26,3.42,16.33,10.08,21.34,7.11.85-.51,1.42-1.14,1.77-1.6.06-.72.03-1.43-.15-2.11-1.22-4.74-12.84-7.5-12.84-7.5Z"/>
      <path class="cls-18" d="M23.58,111.77c-.6-.52-1.56-.8-3.49-1.36-1.36-.4-3.61-1.05-6.11-1.01,2.16,10.14-.65,21.12-3.04,30.98-1.61,6.64-3.91,13.1-7.35,18.86,3.53-2.06,12.58-14.26,18.1-28.41,1.75-4.47,5.94-15.51,1.89-19.05Z"/>
      <path class="cls-5" d="M23.98,82.41c-.34-.21-1.32.56-1.99,1.08-.56.44-1.29,1.03-1.66,2.03-.25.67-.06.77-.25,1.45-.41,1.45-1.44,1.47-1.95,2.64-.61,1.43.67,2.11.1,3.74-.37,1.04-.97,1.02-1.44,2.24-.43,1.11-.49,2.57-.16,2.7,1.17.44,8.65-15.07,7.34-15.89Z"/>
      <path class="cls-5" d="M48.54,126.84c-.15,1.5-3.12,3.23-5.08,2.58-.93-.31-1.12-.94-2.42-1.32-1.7-.51-2.24.32-3.51-.23-1.3-.57-1.09-1.6-2.49-2.5-.26-.16-.54-.26-.9-.41-1.15-.47-1.7-.54-2.14-.71-1.61-.6-1.28-2.29-3.08-3.51-1.33-.91-1.73-.13-3.01-1.07-1.24-.91-1.21-1.9-2.79-3.35-.62-.57-1.19-.94-1.57-1.16-1.09-.76-1.8-1.37-1.7-1.62.61-1.48,29.19,8.4,28.69,13.29Z"/>
      <path class="cls-10" d="M116.59,32.84c.63-.94,3.08-.6,4.63.27.55.31,1.8,1.01,2.18,2.45.45,1.7-.45,3.81-1.63,4.09-2.21.52-6.26-5.2-5.18-6.81Z"/>
      <path class="cls-18" d="M47.85,123.77c-2.18.36-1.38,5.26-4.54,9.84-3.63,5.25-9.71,6.09-9.39,7.05.28.85,5.03.14,8.51-.89,1.36-.4,5.34-1.68,9.1-5,2.35-2.07,2.6-3.17,2.64-3.82.1-1.78-1.25-3.22-2.5-4.55-1.5-1.59-2.66-2.83-3.82-2.64Z"/>
      <path class="cls-18" d="M26.91,78.31c-1.05-3.67-8.07-4.58-11.68-4.58-8.42,0-15.06,4.9-14.77,5.65.32.82,8.4-4.48,16.17-1.23,4.37,1.83,6.62,5.52,8.74,4.54,1.33-.62,1.99-2.78,1.53-4.38Z"/>
      <line class="cls-2" x1="101.4" y1="19.62" x2="103.3" y2="28.35"/>
      <line class="cls-2" x1="110.98" y1="23.23" x2="108.85" y2="31.9"/>
      <line class="cls-2" x1="96.54" y1="24.06" x2="99.83" y2="28.23"/>
      <path class="cls-30" d="M119.54,34.07c.56,1.38.61,2.55.14,3.37-.17.28-.38.51-.64.68-1.17.82-3.35.73-6.58.59-11.42-.47-17.58-2.61-18.31-6.38-.3-1.56.38-3.04,1.24-4.21.86-1.16,1.88-2,2.22-2.27,2.71-2.12,6.37-2.52,10.86-1.21,5.35,1.55,9.7,6.01,11.06,9.42Z"/>
      <path class="cls-33" d="M102.88,23.94c-4.07,2.44-7.15,6.29-6.3,11.56-1.37-.88-2.19-1.92-2.43-3.15-.3-1.56.38-3.04,1.24-4.21.86-1.16,1.88-2,2.22-2.27,1.48-1.16,3.25-1.79,5.27-1.92Z"/>
      <path class="cls-34" d="M106.17,35.51c2.58,3.51,8.15,4.52,9.59,2.42s-.93-7.77-4.69-9.56c-1.74-.83-4.74-1.3-6.02.58-1.29,1.88-.08,4.94,1.12,6.57Z"/>
      <path class="cls-18" d="M136.43,42.38h0c.07.11.13.21.18.3.02.04.04.07.06.1.02.03.04.07.06.1h0c-.28.14-.55.27-.82.46-2.58,1.79-5.19,3.51-7.86,5.15-1.03.64-2.08,1.26-3.14,1.87-3.78,2.19-7.77,3.38-11.65,5.25-2.47,1.18-4.27,3.79-3.16,6.63,2.46,6.27,9.13,6.03,14.71,4.69,3.12-.75,6.09-1.85,9-3.23,1.16-.55,2.4-1.33,3.68-2.15.96-.61,1.92-1.24,2.9-1.81-.23.53-.47,1.05-.71,1.57-2.29,5.04-4.79,10.01-6.53,15.29-2.42,7.33-5.13,13.94-9.69,20.23-4.84,6.7-9.57,14.03-15.94,19.41-6.61,5.6-14.91,8.89-23.13,11.32-14.91,4.42-29.94,6.15-42.96-4-10.19-7.94-19.54-15.51-32.99-12.54h0c-.33.07-.67.16-1,.24-.11.03-.2.06-.29.09.23-1.03,2.19-2.24,4.79-5.38,1.98-2.4,3.11-4.35,6.64-12.24,3.29-7.35,4.94-11.02,6.31-14.54,4-10.25,24.84-40.28,58.3-47.07,25.11-5.1,49.25,4.52,53.25,10.25Z"/>
      <path class="cls-32" d="M136.62,42.68s.04.07.06.1c.02.03.04.07.05.11.2.37.3.72.29,1.03-.02,1.85-3.34,6.41-7.81,9.29-.13.08-.31.21-.62.4-.13.07-.25.15-.38.24-2.71,1.65-6.47,3.61-11.56,5.43,2.55,1.12,6.37,2.3,10.65,1.56,7.34-1.26,10.49-7.18,13.55-7.85.42-.09.83-.08,1.25.04.69.2,1.29.71,1.81,1.46,2.28,3.32,2.92,11.34,2.09,18.61-1.11,9.7-4.97,18.97-10.59,27.26-.61.89-1.23,1.77-1.88,2.64-12.75,17.16-30.11,25.18-30.11,25.18-4.68,2.17-20.3,9.16-39.89,6.34-4.97-.71-12.19-1.75-20.24-6.14-10.32-5.63-14.15-12.49-25.16-15.33-4.51-1.16-8.41-1.19-10.88-1.05.37-.3.76-.61,1.18-.95h0c3.33-2.7,8.1-6.61,13.72-11.38,33.47-28.4,35.42-35.22,51.82-43.75,16.55-8.6,32.6-11.02,39.13-11.97,7.24-1.03,13.7-1.34,19.07-1.33,1.57,0,3.06.03,4.43.07Z"/>
      <path class="cls-26" d="M129.11,62.76c3.59-.56,5.97-2.3,7.5-3.45,2.25-1.69,3.71-3.53,4.59-4.82.09-.15.69-1.21.37-1.53-.1-.1-.31-.14-.97.08-2.45.81-4.34,3.03-4.34,3.03-1.05,1.1-2.65,2.48-4.89,3.47-3.49,1.54-6.66,1.31-8.73,1.13-2.47-.21-4.51-.81-5.99-1.38.88.7,2.23,1.63,4.05,2.37,1.18.48,4.36,1.74,8.42,1.11Z"/>
      <path class="cls-27" d="M135.8,42.56c-.74,1.47-1.98,3.58-3.94,5.76-1.06,1.17-2.41,2.46-6.12,5.09-2.24,1.59-5.35,3.66-9.25,5.91.05-.01.1-.03.15-.04,5.33-1.9,9.2-3.96,11.93-5.67.3-.19.5-.32.62-.4,4.47-2.88,7.78-7.44,7.81-9.29,0-.38-.14-.79-.39-1.23-.27-.04-.54-.09-.81-.13Z"/>
      <path class="cls-25" d="M120.32,57.85c3.49-1.47,6.21-2.96,8.27-4.25.3-.19.5-.32.62-.4,2.64-1.7,4.87-3.99,6.26-5.95-1.36,1.51-3.03,3.15-5.08,4.76-3.66,2.89-7.24,4.69-10.07,5.84Z"/>
      <path class="cls-27" d="M142.11,53.02c.25,2.08.42,5.1-.08,8.68-.53,3.82-1.69,7.27-4.26,12.4-2.18,4.35-5,10.22-10.77,17.04-5.75,6.79-14.24,16.89-29.27,24.01-13.4,6.34-31.94,9.18-43.86,6.55-5.14-1.13-9.82-3.35-14.57-5.42-7.61-3.32-7.44-2.89-8.61-3.25-11.98-3.72-23.51-1.73-23.52-1.18,0,.35,4.59-.4,10.97,1.2,11.28,2.82,14.62,9.5,25.16,15.33,7.91,4.37,15.02,5.39,20.24,6.14,19.59,2.82,35.21-4.18,39.89-6.34,16.49-7.64,25.54-19.19,30.11-25.18,3.85-5.04,6.34-9.47,8.03-12.96,3.57-7.35,10.3-21.22,4.61-31.88-1.34-2.51-3.02-4.2-4.07-5.14Z"/>
      <path class="cls-29" d="M96.02,53.85c-6.07,4.82-11.19,8.77-14.96,11.65,0,0-3.09,2.35-8.09,6.03-10.64,7.8-29.95,21.55-46.62,31.22-7,4.05-12.7,6.5-14.82,7.38-1.83.76-3.36,1.34-4.37,1.72,5.28-4.24,9.38-7.97,12.15-10.6,10.83-10.25,19.26-20.56,30.33-29.47,1-.81,2.24-1.77,2.56-2.02,5.56-4.31,9.56-7.4,15.52-10.91.2-.12.41-.24.62-.36,0,0,1.26-.74,3.49-1.89,3.97-2.04,11-5.37,19.56-8.26.22.16.43.34.62.51,1.98,1.72,3.11,3.45,3.54,4.17.12.2.28.48.47.83Z"/>
      <path class="cls-7" d="M95.56,53.02c-7.43,3.36-13.46,7-18.24,9.93-.88.53-1.92,1.21-3.23,2.1-1.1.73-2.39,1.62-3.9,2.69-2.5,1.74-5.63,3.97-9.63,6.8-18.5,13.08-25.48,18.93-40.96,29.26-5.42,3.61-9.84,6.42-12.43,8.05,5.28-4.24,9.38-7.97,12.15-10.6,10.83-10.25,19.26-20.56,30.33-29.47,1-.81,2.24-1.77,2.56-2.02,5.56-4.31,9.56-7.4,15.52-10.91.2-.12.41-.24.62-.36,0,0,1.26-.74,3.49-1.89,3.97-2.04,11-5.37,19.56-8.26.22.16.43.34.62.51,1.4,1.19,2.6,2.59,3.54,4.17Z"/>
      <path class="cls-19" d="M24.88,79.2c-.76-.55-1.68-1.41-1.94-2.64-.81-3.75,5.14-7.56,9.46-11.24,8.17-6.98,13.04-15.68,15.06-20.88,5.13-13.27-1.72-20.79,4.16-25.94,4.92-4.32,14.03-2.86,19.17-.47,4.55,2.11,7.37,5.38,8.49,6.71,2.91,3.44,4.36,6.89,5.1,9.1-7.01,2.52-15.15,6.15-23.65,11.46-17.66,11.02-29.07,24.39-35.84,33.9Z"/>
      <path class="cls-18" d="M79.28,24.73c-1.13-1.33-3.95-4.6-8.49-6.71-5.14-2.39-14.25-3.84-19.17.47-.45.39-.82.8-1.13,1.23,12.66-3.95,25.5,3.48,31.09,15.16.95-.37,1.88-.72,2.8-1.05-.74-2.21-2.19-5.66-5.1-9.1Z"/>
      <path class="cls-22" d="M49.2,37.78c-.29,2.04-.82,4.25-1.75,6.65-.56,1.46-1.36,3.19-2.38,5.08,2.72-1.1,5.33-.27,7.64,1.24,2.52-1.86,5.17-3.69,8-5.46,3.04-1.9,6.04-3.58,8.95-5.07-6.32-3.89-13.83-5.69-20.47-2.44Z"/>
      <path class="cls-20" d="M45.07,49.52c-1.36,2.52-3.14,5.31-5.35,8.12,1.41-.08,2.81-.04,4.18.28,2.7-2.41,5.63-4.82,8.81-7.17-2.32-1.51-4.92-2.34-7.64-1.24Z"/>
      <path class="cls-24" d="M32.87,64.89c-.16.14-.31.29-.48.43-1.63,1.39-3.5,2.8-5.14,4.22,1.41.36,2.82.68,4.2,1.2,1.4-1.66,2.91-3.36,4.53-5.09-1.02-.4-2.08-.61-3.12-.77Z"/>
      <path class="cls-14" d="M23.19,74.39c-.19.48-.3.96-.31,1.44,1.48.2,2.76.32,3.7,1.05.33-.44.66-.89,1.01-1.34-1.26-.84-2.72-.93-4.41-1.14Z"/>
      <path class="cls-12" d="M22.88,75.83c0,.24,0,.48.06.72.27,1.23,1.18,2.09,1.94,2.64.53-.75,1.11-1.53,1.7-2.32-.95-.73-2.22-.85-3.7-1.05Z"/>
      <path class="cls-13" d="M23.98,72.94c-.34.49-.6.97-.79,1.46,1.68.22,3.15.31,4.41,1.14.37-.48.74-.96,1.13-1.44-1.42-.76-3.09-1.11-4.74-1.16Z"/>
      <path class="cls-12" d="M27.26,69.54c-1.31,1.13-2.47,2.26-3.28,3.4,1.65.04,3.32.4,4.74,1.16.86-1.09,1.76-2.21,2.73-3.35-1.38-.52-2.79-.84-4.2-1.2Z"/>
      <path class="cls-24" d="M39.72,57.64c-1.94,2.47-4.22,4.94-6.85,7.25,1.04.16,2.1.37,3.12.77,2.39-2.54,5.01-5.13,7.92-7.73-1.38-.33-2.77-.37-4.18-.28Z"/>
      <path class="cls-21" d="M49.07,25.34c.07,3.31.85,7.36.13,12.44,6.64-3.25,14.15-1.45,20.47,2.44,3.11-1.6,6.14-2.98,9.02-4.18-7.21-8.37-18.96-15.34-29.62-10.7Z"/>
      <path class="cls-17" d="M50.48,19.71c-1.19,1.62-1.46,3.47-1.41,5.63,10.66-4.64,22.41,2.33,29.62,10.7.98-.41,1.94-.8,2.89-1.16-5.59-11.69-18.43-19.12-31.09-15.16Z"/>
      <path class="cls-27" d="M70.79,104.12c-2.78-1.91-1.2-6.5-2.79-7.23-2.34-1.08-9.58,5.64-12.68,14.7-2.03,5.96-2.38,13.26-.55,13.89.97.34,1.8-1.44,4.6-4.06,7.05-6.62,12.82-5.72,15.64-11.48.31-.63,1.51-3.09.51-4.42-.95-1.28-2.99-.2-4.73-1.39Z"/>
      <path class="cls-19" d="M70.68,102.68c-3.03-3.05-1.55-6.84-3.17-7.29-2.47-.69-8.67,7.38-12.64,15.9-3.34,7.17-6.5,17.16-4.44,17.97,2.18.86,5.71-7.56,18.44-16.36,3.08-2.13,7.34-4.72,6.98-6.76-.27-1.54-2.88-1.16-5.17-3.46Z"/>
      <path class="cls-20" d="M70.5,103.64c-.48-.33-1.26-.94-1.91-1.96-.64-1-.88-1.94-.98-2.51-2.63,2.51-5.8,5.99-8.77,10.57-3.18,4.89-5.13,9.5-6.35,13.09,1.82-3.71,5.02-8.99,10.49-13.83,2.63-2.33,5.23-4.07,7.52-5.36Z"/>
      <path class="cls-18" d="M56.09,112.2c3.28-5.3,7.49-9.6,12.78-12.7-.56-2.04-.28-3.81-1.35-4.11-2.47-.69-8.67,7.38-12.64,15.9-3.15,6.76-6.14,16.02-4.74,17.74,1.34-5.85,2.7-11.58,5.95-16.83Z"/>
      <path class="cls-27" d="M95.86,55.04c2.53,4.45,3.05,9.88.81,14.04-2.6,4.82-8.12,6.39-9.77,6.87-1.42.41-6.45,1.84-10.81-.27-2.56-1.24-4.72-3.6-6.22-6.47-1.39-2.65-2.22-5.74-2.3-8.77-.11-3.88,1.01-7.68,3.79-10.35,4.93-4.74,13.68-4.61,19.5-.58.41.29.81.6,1.2.93,1.53,1.3,2.81,2.87,3.79,4.6Z"/>
      <path class="cls-1" d="M70.68,94.81c2,2.7,8.66,11.02,20.73,14.27,9.06,2.44,16.67.81,20.12-.16"/>
      <path class="cls-10" d="M90.54,73.71c.61.93,2.11,3.25,1.87,6.3-.46,5.71-6.66,8.66-7.58,9.09-1.3.62-7.65,3.66-12.67-.01-5.04-3.68-4.06-10.7-3.99-11.15.7-4.49,4.02-9.13,9.28-10.28,6.01-1.32,10.93,2.73,13.09,6.05Z"/>
      <line class="cls-2" x1="64.16" y1="59.71" x2="72.63" y2="60.92"/>
      <line class="cls-2" x1="64.32" y1="49.31" x2="72.1" y2="53.69"/>
      <line class="cls-2" x1="71.95" y1="44.77" x2="75.88" y2="52.79"/>
      <path class="cls-30" d="M96.65,67.46c-.87,1.62-2.13,3-3.77,4.15-1.6,1.12-3.56,2.02-5.87,2.67-5.24,1.51-8.75.64-10.77-.34-1.15-.57-2.26-1.37-3.27-2.4-1.06-1.06-2-2.33-2.79-3.79-.06-.09-.12-.19-.16-.29-1.39-2.64-2.2-5.69-2.29-8.6,0-.02,0-.05,0-.08-.14-4.21,1.18-7.87,3.74-10.33,4.65-4.49,13.34-4.73,19.36-.53.2.14.38.28.57.42.22.16.43.34.62.51,1.4,1.19,2.6,2.59,3.54,4.17.08.13.17.28.24.42s.15.28.22.42c2.44,4.56,2.67,9.74.63,13.61Z"/>
      <path class="cls-33" d="M77.24,45.39c-.33.27-8.34,6.83-6.8,16.26.34,2.09,1.78,8.19,7.72,11.16,6.6,3.3,13-.16,13.55-.47-.53.34-8.44,5.2-15.48,1.58-3.63-1.87-5.56-5.21-6.22-6.48-1.39-2.66-2.22-5.75-2.3-8.68-.14-4.21,1.19-7.87,3.75-10.33,1.56-1.5,3.57-2.51,5.78-3.05Z"/>
      <path class="cls-6" d="M73.89,66.21c1.59,2.37,4.77,3.81,7.9,2.75,2.7-.91,4.81-3.49,5.08-6.11.55-5.25-6.29-10.32-10.39-8.34-3.24,1.56-5.23,7.77-2.59,11.71Z"/>
      <path class="cls-31" d="M136.54,42.53h0c.06.1.12.19.16.27.01.04.04.07.05.09.02.03.04.07.05.09h0c.18.34.29.64.3.91.09,1.61-2.4,5.37-5.93,7.62-.11.06-.25.16-.49.31-.1.06-.2.12-.3.19-.8-.88-.92-3.07-.43-4.64.25-.8.65-1.45,1.19-1.67.7-.28,1.66.1,1.95-.48.2-.41-.2-.79-.23-1.6-.02-.37-.01-.75.19-1.12.28-.53.8-.69.95-.74,1.18-.38,2.44.69,2.55.78Z"/>
      <path class="cls-31" d="M143.25,59.02c-.97,1.58-2.67,2.09-3.57,2.3-.75.18-1.5.25-2.19.24-1.48-.02-2.68-.41-2.85-.89-.3-.83,2.52-1.63,5-5.43.57-.87.95-1.64,1.22-2.26.12-.03.24-.04.36-.05,0,0,.18-.01.35,0,.27.02,1.1.44,1.59,1.08.8,1.05,1.17,3.27.1,5.02Z"/>
    </g>
  </g>
</svg>