<?xml version="1.0" encoding="UTF-8"?>
<svg id="Layer_2" data-name="Layer 2" xmlns="http://www.w3.org/2000/svg" viewBox="0 0 190.54 142.03">
  <defs>
    <style>
      .cls-1 {
        stroke: #c7e5e5;
        stroke-linejoin: round;
      }

      .cls-1, .cls-2 {
        fill: none;
        stroke-linecap: round;
      }

      .cls-2 {
        stroke: #000;
        stroke-miterlimit: 10;
        stroke-width: 3px;
      }

      .cls-3 {
        opacity: .78;
      }

      .cls-3, .cls-4, .cls-5, .cls-6, .cls-7, .cls-8, .cls-9, .cls-10, .cls-11, .cls-12, .cls-13, .cls-14, .cls-15, .cls-16, .cls-17, .cls-18, .cls-19, .cls-20, .cls-21, .cls-22, .cls-23, .cls-24, .cls-25, .cls-26 {
        stroke-width: 0px;
      }

      .cls-3, .cls-20 {
        fill: #d9f3f4;
      }

      .cls-5 {
        fill: #f2e991;
      }

      .cls-6 {
        fill: #f9a5a5;
      }

      .cls-7 {
        fill: #268ebd;
      }

      .cls-8 {
        fill: #2a9ac5;
      }

      .cls-9 {
        fill: #2894c1;
      }

      .cls-10 {
        fill: #2effb9;
      }

      .cls-11 {
        fill: #1c72a7;
      }

      .cls-12 {
        fill: #1c658e;
      }

      .cls-13 {
        fill: #1a6ca3;
      }

      .cls-14 {
        fill: #2283b4;
      }

      .cls-15 {
        fill: #1e77ac;
      }

      .cls-16 {
        fill: #207db0;
      }

      .cls-17 {
        fill: #2489b9;
      }

      .cls-18 {
        fill: #c7e0e0;
      }

      .cls-19 {
        fill: #c7e5e5;
      }

      .cls-21 {
        fill: #f1f9bb;
      }

      .cls-22 {
        fill: #fff;
      }

      .cls-23 {
        fill: #e87e7c;
      }

      .cls-24 {
        fill: #e8fafc;
      }

      .cls-25 {
        fill: #f4f4f4;
      }

      .cls-26 {
        fill: #020202;
      }
    </style>
  </defs>
  <path class="cls-10" d="M142,32.33c-8.43,4.15-15.03,8.73-20.1,12.29-.8.56-1.77,1.28-2.97,2.22-2.68,2.08-6.54,5.19-12.43,9.95-16.98,13.71-23.33,19.75-37.58,30.63-4.99,3.8-9.07,6.77-11.46,8.49,2.55-2.87,6.34-7.11,10.98-12.23,19.35-21.4,24.85-26.67,29.74-30.98,5.26-4.63,8.99-7.91,14.82-11.82,0,0,1.17-.78,3.24-2.03,4.24-2.53,12.26-6.95,21.97-10.58,1.5,1.12,2.78,2.5,3.78,4.05Z"/>
  <path class="cls-13" d="M66.68,83.43c-1.36-4.16-7.09-5.29-12.8-6.42-6.31-1.25-11.31-.72-12.02-.64C7.82,80.06-.07,80.54,0,81.62c.09,1.45,14.34,2.01,19.67,2.21,9.1.35,11.04-.25,16.24,1.12,6.89,1.81,10.34,2.72,13.58,5.8,2.13,2.03,4.44,5.24,7.96,5.16.99-.02,1.72-.29,2.19-.47,4.31-1.63,8.5-7.57,7.04-12.02Z"/>
  <path class="cls-13" d="M59.02,94.66c-.74.47-1.15.72-1.56,1.25-2.12,2.71-.1,7.11.92,10.78.86,3.05.72,7.03.45,14.99-.45,13.35-4.33,19.64-2.99,20.3,2,.99,11.67-12.78,16.75-28.71,1.41-4.41,4.76-15.27.65-18.43-.61-.47-1.55-.68-3.43-1.1-2.22-.5-6.86-1.53-10.78.92Z"/>
  <path class="cls-12" d="M53.89,77.01c-10.38-1.74-18.93-1.07-20.74-.91C21.2,77.12-.13,79.67,0,81.62c.03.38.85.84,4.43,1.23,2.79-.32,6.8-.75,11.64-1.09,15.25-1.09,22.87-1.64,28.33-.2,10.07,2.66,16.32,8.69,20.95,5.53.79-.54,1.3-1.19,1.6-1.64.01-.69-.06-1.37-.27-2.02-1.46-4.48-12.8-6.42-12.8-6.42Z"/>
  <path class="cls-12" d="M73.23,94.84c-.61-.47-1.55-.68-3.43-1.1-1.33-.3-3.54-.78-5.93-.6,2.69,9.61.66,20.34-1.02,29.96-1.14,6.48-2.96,12.83-5.92,18.58,3.26-2.2,11.22-14.48,15.66-28.41,1.41-4.41,4.76-15.27.65-18.43Z"/>
  <path class="cls-3" d="M71.82,66.59c-.34-.18-1.24.62-1.84,1.16-.51.46-1.18,1.07-1.47,2.06-.2.66-.01.74-.15,1.41-.3,1.42-1.29,1.5-1.71,2.66-.5,1.41.78,1.98.32,3.59-.29,1.02-.87,1.04-1.25,2.24-.35,1.09-.32,2.51.01,2.61,1.15.35,7.4-15.02,6.09-15.72Z"/>
  <path class="cls-3" d="M98.14,107.8c-.06,1.45-2.8,3.3-4.73,2.8-.91-.24-1.14-.83-2.4-1.12-1.67-.39-2.14.45-3.39,0-1.29-.47-1.14-1.47-2.55-2.25-.26-.14-.54-.21-.89-.34-1.13-.38-1.67-.42-2.11-.55-1.58-.48-1.37-2.12-3.17-3.19-1.34-.79-1.67-.02-2.96-.84-1.24-.8-1.28-1.76-2.89-3.05-.63-.51-1.21-.83-1.58-1.02-1.09-.66-1.81-1.2-1.73-1.45.49-1.46,28.57,6.29,28.39,11.02Z"/>
  <path class="cls-6" d="M157.81,13.27c.55-.94,2.92-.77,4.47-.02.54.26,1.79.86,2.25,2.22.54,1.6-.2,3.69-1.32,4.03-2.09.64-6.34-4.62-5.4-6.23Z"/>
  <path class="cls-12" d="M97.29,104.89c-2.07.48-1,5.14-3.77,9.74-3.17,5.27-8.96,6.45-8.6,7.36.32.8,4.84-.17,8.13-1.37,1.28-.47,5.03-1.94,8.44-5.36,2.13-2.13,2.31-3.2,2.3-3.83-.01-1.72-1.4-3.02-2.68-4.22-1.54-1.44-2.73-2.56-3.83-2.3Z"/>
  <path class="cls-12" d="M74.38,62.47c-1.24-3.46-8.03-3.91-11.51-3.69-8.09.51-14.18,5.63-13.85,6.34.36.77,7.8-4.82,15.47-2.17,4.31,1.49,6.7,4.9,8.68,3.83,1.24-.67,1.75-2.8,1.21-4.31Z"/>
  <line class="cls-2" x1="142.4" y1="1.5" x2="144.76" y2="9.77"/>
  <line class="cls-2" x1="151.83" y1="4.38" x2="150.31" y2="12.85"/>
  <line class="cls-2" x1="138" y1="6.06" x2="141.42" y2="9.87"/>
  <path class="cls-22" d="M160.72,14.28c.62,1.29.74,2.42.34,3.23-.15.28-.33.51-.57.7-1.08.86-3.18.91-6.29.97-11.01.25-17.06-1.43-17.99-5.01-.39-1.48.18-2.95.93-4.12.76-1.17,1.69-2.04,2-2.32,2.48-2.2,5.97-2.82,10.37-1.82,5.24,1.17,9.69,5.19,11.21,8.38Z"/>
  <path class="cls-25" d="M144.09,5.56c-3.76,2.59-6.49,6.48-5.35,11.5-1.37-.76-2.23-1.72-2.53-2.88-.39-1.48.18-2.95.93-4.12.76-1.17,1.69-2.04,2-2.32,1.35-1.21,3.01-1.92,4.95-2.17Z"/>
  <path class="cls-26" d="M147.95,16.48c2.69,3.22,8.11,3.85,9.37,1.74s-1.37-7.41-5.09-8.91c-1.72-.7-4.63-.96-5.76.93-1.12,1.88.23,4.75,1.47,6.25Z"/>
  <path class="cls-12" d="M177.47,21.23h0c.07.1.14.19.19.28.02.04.04.07.06.09.02.03.04.07.06.09h0c-.26.15-.51.3-.76.5-2.37,1.88-4.78,3.7-7.24,5.43-.95.68-1.92,1.34-2.9,1.99-3.5,2.33-7.26,3.72-10.88,5.76-2.3,1.29-3.87,3.91-2.63,6.56,2.75,5.88,9.14,5.24,14.43,3.61,2.96-.91,5.74-2.15,8.46-3.65,1.08-.6,2.22-1.43,3.4-2.29.88-.64,1.77-1.31,2.68-1.92-.19.52-.39,1.04-.59,1.56-1.89,4.99-3.99,9.91-5.34,15.1-1.88,7.19-4.08,13.72-8.07,20.04-4.24,6.74-8.34,14.08-14.13,19.63-6.02,5.78-13.79,9.46-21.54,12.3-14.06,5.16-28.4,7.74-41.54-1.22-10.28-7.01-19.73-13.72-32.48-10.04h0c-.32.09-.63.19-.95.29-.1.03-.19.07-.28.1.16-1.01,1.96-2.28,4.27-5.47,1.76-2.43,2.73-4.38,5.64-12.17,2.71-7.27,4.07-10.9,5.17-14.36,3.21-10.1,21.41-40.24,53.17-48.81,23.83-6.43,47.62,1.34,51.81,6.6Z"/>
  <path class="cls-24" d="M177.67,21.51s.04.07.06.09c.02.03.04.07.05.1.21.34.33.67.34.97.09,1.78-2.82,6.36-6.94,9.41-.12.09-.29.22-.57.42-.12.08-.23.16-.35.25-2.5,1.75-6,3.87-10.78,5.92,2.52.92,6.26,1.82,10.34.85,6.98-1.66,9.64-7.54,12.55-8.37.4-.11.79-.13,1.21-.04.67.15,1.28.6,1.83,1.29,2.4,3.05,3.5,10.73,3.15,17.77-.47,9.4-3.62,18.54-8.51,26.85-.53.89-1.08,1.78-1.64,2.65-11.21,17.27-27.4,26.04-27.4,26.04-4.37,2.37-18.95,10.05-37.96,8.54-4.82-.38-11.83-.94-19.83-4.67-10.26-4.78-14.37-11.14-25.12-13.2-4.41-.84-8.16-.63-10.52-.34.34-.31.7-.63,1.08-.99h0c3.04-2.8,7.39-6.85,12.5-11.78,30.43-29.34,31.9-36.03,47.13-45.23,15.38-9.28,30.66-12.59,36.89-13.9,6.89-1.43,13.09-2.13,18.25-2.44,1.51-.1,2.94-.16,4.26-.2Z"/>
  <path class="cls-19" d="M171.68,41.27c3.42-.76,5.6-2.58,7-3.78,2.06-1.76,3.35-3.62,4.12-4.91.08-.15.59-1.2.26-1.5-.11-.09-.31-.12-.93.13-2.31.93-3.99,3.17-3.99,3.17-.94,1.13-2.39,2.55-4.49,3.63-3.26,1.69-6.32,1.66-8.32,1.62-2.39-.05-4.39-.5-5.85-.96.89.62,2.25,1.43,4.04,2.03,1.16.39,4.3,1.41,8.16.55Z"/>
  <path class="cls-20" d="M176.87,21.44c-.63,1.46-1.68,3.57-3.44,5.78-.94,1.19-2.16,2.51-5.57,5.26-2.06,1.66-4.92,3.85-8.53,6.25.05-.02.09-.03.14-.05,5.01-2.16,8.6-4.37,11.13-6.18.28-.2.46-.33.57-.42,4.12-3.04,7.03-7.63,6.94-9.41-.02-.36-.18-.75-.45-1.15-.26-.03-.53-.05-.79-.08Z"/>
  <path class="cls-18" d="M162.92,37.09c3.27-1.63,5.78-3.22,7.69-4.59.28-.2.46-.33.57-.42,2.43-1.8,4.44-4.13,5.66-6.11-1.21,1.53-2.72,3.21-4.59,4.89-3.34,3-6.68,4.95-9.33,6.23Z"/>
  <path class="cls-20" d="M183.57,31.11c.36,1.98.71,4.88.45,8.35-.28,3.7-1.18,7.1-3.33,12.18-1.83,4.32-4.18,10.13-9.31,17.03-5.11,6.88-12.65,17.11-26.67,24.87-12.49,6.92-30.14,10.78-41.76,8.98-5.01-.78-9.65-2.62-14.33-4.32-7.52-2.72-7.32-2.32-8.48-2.6-11.74-2.84-22.71-.22-22.68.3.02.33,4.39-.66,10.62.48,11.01,2.03,14.63,8.24,25.12,13.2,7.87,3.72,14.77,4.27,19.83,4.67,19.01,1.51,33.6-6.17,37.96-8.54,15.38-8.35,23.38-20.01,27.4-26.04,3.39-5.08,5.51-9.49,6.93-12.95,2.98-7.28,8.61-21.02,2.48-30.93-1.44-2.33-3.16-3.85-4.23-4.69Z"/>
  <path class="cls-21" d="M139.33,34.73c-5.54,5-10.22,9.11-13.67,12.12,0,0-2.83,2.45-7.41,6.29-9.75,8.15-27.47,22.55-42.91,32.86-6.48,4.33-11.81,7.02-13.8,8-1.71.84-3.14,1.5-4.09,1.92,4.81-4.4,8.53-8.24,11.03-10.93,9.78-10.52,17.26-20.94,27.36-30.18.91-.84,2.04-1.84,2.34-2.1,5.08-4.48,8.74-7.69,14.25-11.43.18-.13.38-.26.57-.39,0,0,1.17-.79,3.24-2.03,3.69-2.2,10.25-5.84,18.29-9.14.22.14.43.3.63.45,2.01,1.53,3.2,3.13,3.66,3.8.12.18.3.44.5.77Z"/>
  <path class="cls-5" d="M138.83,33.96c-6.94,3.69-12.51,7.56-16.93,10.66-.81.56-1.77,1.28-2.97,2.22-1.01.77-2.19,1.71-3.59,2.82-2.29,1.83-5.17,4.16-8.84,7.13-16.98,13.71-23.33,19.75-37.58,30.63-4.99,3.8-9.06,6.78-11.46,8.5,4.81-4.4,8.53-8.24,11.03-10.93,9.78-10.52,17.26-20.94,27.36-30.18.91-.84,2.04-1.84,2.34-2.1,5.08-4.48,8.74-7.69,14.25-11.43.18-.13.38-.26.57-.39,0,0,1.17-.79,3.24-2.03,3.69-2.2,10.25-5.84,18.29-9.14.22.14.43.3.63.45,1.42,1.06,2.65,2.33,3.66,3.8Z"/>
  <path class="cls-13" d="M72.49,63.45c-.77-.48-1.7-1.26-2.03-2.42-1.01-3.55,4.48-7.58,8.4-11.38,7.43-7.21,11.58-15.87,13.2-21,4.12-13.07-2.92-19.88,2.41-25.19,4.46-4.45,13.31-3.61,18.4-1.63,4.5,1.75,7.41,4.72,8.58,5.94,3.01,3.13,4.61,6.36,5.45,8.44-6.59,2.85-14.19,6.84-22.04,12.46-16.3,11.68-26.45,25.22-32.38,34.78Z"/>
  <path class="cls-12" d="M121.45,7.76c-1.16-1.21-4.08-4.18-8.58-5.94-5.09-1.98-13.94-2.82-18.4,1.63-.41.41-.74.82-1.01,1.25,11.93-4.57,24.73,1.78,30.82,12.67.89-.41,1.77-.8,2.63-1.18-.84-2.08-2.45-5.31-5.45-8.44Z"/>
  <path class="cls-16" d="M93.33,22.15c-.15,1.98-.53,4.13-1.27,6.5-.45,1.44-1.11,3.15-1.98,5.03,2.55-1.22,5.11-.58,7.42.72,2.31-1.94,4.75-3.87,7.36-5.74,2.81-2.01,5.58-3.81,8.29-5.42-6.31-3.35-13.64-4.62-19.83-1.09Z"/>
  <path class="cls-14" d="M90.08,33.68c-1.15,2.5-2.69,5.3-4.64,8.14,1.36-.17,2.7-.21,4.04.02,2.45-2.48,5.12-4.97,8.03-7.43-2.32-1.31-4.88-1.94-7.42-.72Z"/>
  <path class="cls-17" d="M79.29,49.2c-.15.15-.28.3-.43.44-1.48,1.44-3.19,2.91-4.68,4.37,1.38.26,2.76.48,4.11.9,1.25-1.68,2.59-3.4,4.05-5.17-1-.32-2.04-.46-3.05-.55Z"/>
  <path class="cls-9" d="M70.57,58.93c-.15.47-.23.94-.21,1.4,1.44.1,2.67.14,3.62.78.29-.45.58-.89.89-1.35-1.26-.73-2.68-.73-4.31-.83Z"/>
  <path class="cls-7" d="M70.36,60.34c0,.23.03.46.1.69.33,1.17,1.26,1.94,2.03,2.42.46-.75.97-1.54,1.49-2.33-.95-.64-2.19-.68-3.62-.78Z"/>
  <path class="cls-8" d="M71.24,57.48c-.3.49-.51.97-.67,1.45,1.63.1,3.05.1,4.31.83.32-.48.65-.96.99-1.46-1.41-.64-3.04-.88-4.63-.82Z"/>
  <path class="cls-7" d="M74.18,54.02c-1.19,1.17-2.24,2.33-2.94,3.47,1.59-.06,3.22.18,4.63.82.76-1.1,1.56-2.23,2.42-3.39-1.36-.42-2.74-.64-4.11-.9Z"/>
  <path class="cls-17" d="M85.44,41.82c-1.71,2.49-3.76,5.01-6.14,7.38,1.01.09,2.04.23,3.05.55,2.14-2.59,4.5-5.24,7.14-7.91-1.34-.23-2.68-.18-4.04-.02Z"/>
  <path class="cls-15" d="M92.45,10.2c.27,3.18,1.27,7.02.89,11.95,6.18-3.53,13.52-2.26,19.83,1.09,2.9-1.73,5.72-3.24,8.42-4.57-7.44-7.6-19.17-13.58-29.13-8.47Z"/>
  <path class="cls-11" d="M93.46,4.7c-1.05,1.63-1.19,3.43-1.01,5.5,9.96-5.11,21.69.87,29.13,8.47.91-.45,1.82-.89,2.7-1.29C118.19,6.49,105.39.13,93.46,4.7Z"/>
  <path class="cls-20" d="M118.14,84.6c-2.79-1.67-1.55-6.18-3.13-6.78-2.31-.89-8.87,6.01-11.29,14.91-1.59,5.85-1.48,12.89.32,13.39.95.26,1.65-1.5,4.17-4.19,6.37-6.79,11.98-6.28,14.33-12,.26-.62,1.26-3.06.22-4.28-.99-1.17-2.88,0-4.63-1.05Z"/>
  <path class="cls-13" d="M117.95,83.22c-3.1-2.75-1.91-6.48-3.49-6.82-2.41-.51-7.88,7.62-11.18,16.06-2.77,7.09-5.2,16.89-3.17,17.55,2.15.7,5.03-7.62,16.72-16.85,2.83-2.23,6.77-4.99,6.3-6.93-.36-1.46-2.84-.94-5.18-3.01Z"/>
  <path class="cls-14" d="M117.84,84.16c-.48-.28-1.27-.83-1.96-1.77-.68-.92-.96-1.81-1.1-2.35-2.38,2.58-5.21,6.12-7.78,10.7-2.75,4.9-4.35,9.44-5.3,12.97,1.52-3.68,4.28-8.95,9.24-13.94,2.39-2.4,4.78-4.23,6.9-5.62Z"/>
  <path class="cls-12" d="M104.5,93.26c2.83-5.29,6.62-9.68,11.51-12.99-.67-1.93-.5-3.65-1.55-3.87-2.41-.51-7.88,7.62-11.18,16.06-2.62,6.69-4.92,15.77-3.47,17.34.93-5.71,1.89-11.3,4.69-16.54Z"/>
  <path class="cls-20" d="M139.24,35.89c2.7,4.12,3.53,9.31,1.64,13.44-2.21,4.79-7.41,6.64-8.97,7.2-1.34.49-6.08,2.17-10.41.4-2.54-1.03-4.75-3.17-6.37-5.84-1.5-2.46-2.49-5.38-2.74-8.29-.35-3.72.5-7.44,3.01-10.18,4.45-4.86,12.87-5.27,18.71-1.75.41.25.82.52,1.21.82,1.55,1.16,2.88,2.59,3.92,4.19Z"/>
  <path class="cls-1" d="M117.46,75.66c2.08,2.48,9,10.06,20.8,12.45,8.86,1.79,16.07-.24,19.33-1.39"/>
  <path class="cls-6" d="M135.27,54.16c.64.86,2.23,3,2.18,5.94-.09,5.52-5.88,8.73-6.73,9.21-1.21.67-7.13,3.98-12.18.76-5.07-3.23-4.55-10.03-4.51-10.47.4-4.36,3.31-9.02,8.29-10.45,5.7-1.63,10.68,1.95,12.96,5.02Z"/>
  <line class="cls-2" x1="109.05" y1="42.32" x2="117.27" y2="42.96"/>
  <line class="cls-2" x1="108.57" y1="32.31" x2="116.32" y2="36.04"/>
  <line class="cls-2" x1="115.63" y1="27.48" x2="119.89" y2="34.95"/>
  <path class="cls-22" d="M140.76,47.78c-.74,1.61-1.86,3.01-3.37,4.22-1.47,1.17-3.3,2.16-5.48,2.93-4.95,1.77-8.37,1.15-10.37.33-1.14-.47-2.26-1.18-3.29-2.11-1.08-.95-2.07-2.12-2.91-3.47-.06-.08-.12-.18-.18-.27-1.49-2.45-2.47-5.34-2.73-8.12,0-.02-.01-.05-.01-.07-.4-4.04.66-7.64,2.97-10.16,4.2-4.6,12.53-5.36,18.58-1.69.2.12.38.24.57.37.22.14.43.3.63.45,1.42,1.06,2.65,2.33,3.66,3.8.09.12.18.26.26.39s.16.26.24.39c2.62,4.24,3.17,9.2,1.44,13.04Z"/>
  <path class="cls-25" d="M120.76,27.75c-.31.28-7.6,7.08-5.54,16.05.45,1.99,2.21,7.77,8.1,10.26,6.55,2.77,12.49-.95,13-1.28-.49.36-7.8,5.52-14.78,2.47-3.61-1.58-5.66-4.66-6.38-5.85-1.5-2.47-2.48-5.39-2.74-8.2-.39-4.04.66-7.64,2.97-10.16,1.41-1.53,3.28-2.63,5.37-3.29Z"/>
  <path class="cls-4" d="M118.8,47.97c1.67,2.18,4.82,3.37,7.77,2.16,2.54-1.04,4.41-3.65,4.51-6.19.2-5.08-6.68-9.53-10.5-7.38-3.02,1.7-4.55,7.79-1.78,11.41Z"/>
  <path class="cls-23" d="M177.58,21.38h0c.07.09.12.17.17.25.02.03.04.06.06.08.02.03.04.06.06.08h0c.2.31.31.6.34.86.18,1.54-1.98,5.31-5.23,7.69-.1.07-.23.17-.45.33-.09.06-.18.12-.28.2-.82-.79-1.07-2.89-.7-4.44.19-.79.54-1.44,1.05-1.68.66-.31,1.61,0,1.84-.58.17-.4-.24-.75-.32-1.53-.04-.35-.06-.72.11-1.09.24-.53.73-.72.87-.77,1.11-.44,2.39.52,2.49.59Z"/>
  <path class="cls-23" d="M185.04,36.82c-.84,1.58-2.44,2.17-3.29,2.43-.71.22-1.42.33-2.09.36-1.42.07-2.6-.23-2.8-.68-.34-.78,2.32-1.72,4.47-5.52.5-.87.81-1.63,1.04-2.25.11-.03.23-.06.34-.07,0,0,.17-.02.34-.03.26,0,1.08.35,1.59.94.83.96,1.32,3.07.4,4.82Z"/>
</svg>